<svg enable-background="new 0 0 56 56" height="512" viewBox="0 0 56 56" width="512" xmlns="http://www.w3.org/2000/svg"><path d="m25 46h-14.155c-5.98 0-10.845-4.865-10.845-10.846 0-4.154 2.705-8.466 6.433-10.253l.567-.271v-.63c0-.127.008-.256.015-.386l.009-.16-.012-.21c-.006-.081-.012-.162-.012-.244 0-3.859 3.141-7 7-7 .309 0 .614.027.917.067.078.01.156.023.233.036.267.044.53.102.789.177.035.01.071.017.106.027.285.087.563.197.835.321.071.032.14.067.21.101.24.119.475.249.702.396 1.927 1.248 3.208 3.413 3.208 5.875 0 .553.447 1 1 1s1-.447 1-1c0-2.754-1.246-5.219-3.2-6.871 2.867-3.75 7.588-6.129 12.285-6.129 7.745 0 14.177 6.135 14.848 13.888-1.022-.072-2.552-.109-4.083.124-.546.083-.921.593-.838 1.139.075.495.501.85.987.85.05 0 .101-.004.151-.012 2.227-.337 4.548-.021 4.684-.002 4.656.885 8.166 5.174 8.166 9.985 0 5.529-4.499 10.028-10.028 10.028h-12.972z" fill="#fff"/></svg>