<?xml version="1.0" encoding="iso-8859-1"?>
<!-- Generator: Adobe Illustrator 19.0.0, SVG Export Plug-In . SVG Version: 6.00 Build 0)  -->
<svg xmlns="http://www.w3.org/2000/svg" xmlns:xlink="http://www.w3.org/1999/xlink" version="1.1" id="Capa_1" x="0px" y="0px" viewBox="0 0 60 60" style="enable-background:new 0 0 60 60;" xml:space="preserve" width="512px" height="512px">
<g>
	<g>
		<path d="M29,25c-2.8,0-5,2.2-5,5v3c0,2.8,2.2,5,5,5h2c2.8,0,5-2.2,5-5v-3c0-2.8-2.2-5-5-5H29z M31,36h-2c-1.7,0-3-1.3-3-3v-2h8v2    C34,34.7,32.7,36,31,36z M33.8,29h-7.7c0.4-1.2,1.5-2,2.8-2h2C32.3,27,33.4,27.8,33.8,29z" fill="#FFFFFF"/>
		<rect x="27" y="50" width="6" height="2" fill="#FFFFFF"/>
		<rect x="27" y="54" width="6" height="2" fill="#FFFFFF"/>
		<path d="M58,6v48c0,2.2-1.8,4-4,4H42V46c0-3.9-3.1-7-7-7H25c-3.9,0-7,3.1-7,7v12H6c-2.2,0-4-1.8-4-4V6H0v48c0,3.4,2.6,6,6,6h12h2    h3h2h10h2h3h2h12c3.4,0,6-2.6,6-6V6H58z M20,58v-3h3v3H20z M25,58v-9h-2v4h-3v-7c0-2.8,2.2-5,5-5h4v4h2v-4h4c2.8,0,5,2.2,5,5v7h-3    v-4h-2v9H25z M37,58v-3h3v3H37z" fill="#FFFFFF"/>
		<path d="M23,26v-8h7v-2h-8h-4.7L30,2.5L42.7,16H38c-0.6,0-1,0.4-1,1v9c0,0.6,0.4,1,1,1h12v-2H39v-7h6c0.4,0,0.8-0.2,1-0.6    c0.1-0.4,0.1-0.8-0.2-1.1l-15-16c-0.4-0.4-1.1-0.4-1.5,0l-15,16c-0.3,0.3-0.4,0.7-0.2,1.1c0.1,0.4,0.5,0.6,0.9,0.6h6v7H10v2h12    C22.6,27,23,26.6,23,26z" fill="#FFFFFF"/>
		<rect x="52" y="25" width="4" height="2" fill="#FFFFFF"/>
		<rect x="4" y="25" width="4" height="2" fill="#FFFFFF"/>
		<rect x="4" y="29" width="2" height="2" fill="#FFFFFF"/>
		<rect x="8" y="29" width="2" height="2" fill="#FFFFFF"/>
		<rect x="12" y="29" width="2" height="2" fill="#FFFFFF"/>
		<rect x="16" y="29" width="2" height="2" fill="#FFFFFF"/>
		<rect x="20" y="29" width="2" height="2" fill="#FFFFFF"/>
		<rect x="4" y="33" width="2" height="2" fill="#FFFFFF"/>
		<rect x="8" y="33" width="2" height="2" fill="#FFFFFF"/>
		<rect x="12" y="33" width="2" height="2" fill="#FFFFFF"/>
		<rect x="16" y="33" width="2" height="2" fill="#FFFFFF"/>
		<rect x="20" y="33" width="2" height="2" fill="#FFFFFF"/>
		<rect x="4" y="37" width="2" height="2" fill="#FFFFFF"/>
		<rect x="8" y="37" width="2" height="2" fill="#FFFFFF"/>
		<rect x="12" y="37" width="2" height="2" fill="#FFFFFF"/>
		<rect x="16" y="37" width="2" height="2" fill="#FFFFFF"/>
		<rect x="4" y="41" width="2" height="2" fill="#FFFFFF"/>
		<rect x="8" y="41" width="2" height="2" fill="#FFFFFF"/>
		<rect x="12" y="41" width="2" height="2" fill="#FFFFFF"/>
		<rect x="4" y="45" width="2" height="2" fill="#FFFFFF"/>
		<rect x="8" y="45" width="2" height="2" fill="#FFFFFF"/>
		<rect x="12" y="45" width="2" height="2" fill="#FFFFFF"/>
		<rect x="4" y="49" width="2" height="2" fill="#FFFFFF"/>
		<rect x="8" y="49" width="2" height="2" fill="#FFFFFF"/>
		<rect x="12" y="49" width="2" height="2" fill="#FFFFFF"/>
		<rect x="4" y="53" width="2" height="2" fill="#FFFFFF"/>
		<rect x="8" y="53" width="2" height="2" fill="#FFFFFF"/>
		<rect x="12" y="53" width="2" height="2" fill="#FFFFFF"/>
		<rect x="46" y="45" width="2" height="2" fill="#FFFFFF"/>
		<rect x="50" y="45" width="2" height="2" fill="#FFFFFF"/>
		<rect x="54" y="45" width="2" height="2" fill="#FFFFFF"/>
		<rect x="46" y="49" width="2" height="2" fill="#FFFFFF"/>
		<rect x="50" y="49" width="2" height="2" fill="#FFFFFF"/>
		<rect x="54" y="49" width="2" height="2" fill="#FFFFFF"/>
		<rect x="46" y="53" width="2" height="2" fill="#FFFFFF"/>
		<rect x="50" y="53" width="2" height="2" fill="#FFFFFF"/>
		<rect x="54" y="53" width="2" height="2" fill="#FFFFFF"/>
		<rect x="46" y="33" width="2" height="2" fill="#FFFFFF"/>
		<rect x="50" y="33" width="2" height="2" fill="#FFFFFF"/>
		<rect x="54" y="33" width="2" height="2" fill="#FFFFFF"/>
		<rect x="46" y="29" width="2" height="2" fill="#FFFFFF"/>
		<rect x="50" y="29" width="2" height="2" fill="#FFFFFF"/>
		<rect x="54" y="29" width="2" height="2" fill="#FFFFFF"/>
		<rect x="46" y="37" width="2" height="2" fill="#FFFFFF"/>
		<rect x="42" y="37" width="2" height="2" fill="#FFFFFF"/>
		<rect x="42" y="33" width="2" height="2" fill="#FFFFFF"/>
		<rect x="42" y="29" width="2" height="2" fill="#FFFFFF"/>
		<rect x="38" y="29" width="2" height="2" fill="#FFFFFF"/>
		<rect x="38" y="33" width="2" height="2" fill="#FFFFFF"/>
		<rect x="50" y="37" width="2" height="2" fill="#FFFFFF"/>
		<rect x="54" y="37" width="2" height="2" fill="#FFFFFF"/>
		<rect x="46" y="41" width="2" height="2" fill="#FFFFFF"/>
		<rect x="50" y="41" width="2" height="2" fill="#FFFFFF"/>
		<rect x="54" y="41" width="2" height="2" fill="#FFFFFF"/>
	</g>
</g>
<g>
</g>
<g>
</g>
<g>
</g>
<g>
</g>
<g>
</g>
<g>
</g>
<g>
</g>
<g>
</g>
<g>
</g>
<g>
</g>
<g>
</g>
<g>
</g>
<g>
</g>
<g>
</g>
<g>
</g>
</svg>
